<mxfile host="app.diagrams.net" modified="2023-05-08T06:47:24.746Z" agent="Mozilla/5.0 (Windows NT 10.0; Win64; x64) AppleWebKit/537.36 (KHTML, like Gecko) Chrome/112.0.0.0 Safari/537.36" etag="PrXlQB6ZuIB-iF-5q4Bt" version="21.2.9" type="github">
  <diagram id="R2lEEEUBdFMjLlhIrx00" name="Page-1">
    <mxGraphModel dx="2071" dy="654" grid="1" gridSize="10" guides="1" tooltips="1" connect="1" arrows="1" fold="1" page="1" pageScale="1" pageWidth="850" pageHeight="1100" math="0" shadow="0" extFonts="Permanent Marker^https://fonts.googleapis.com/css?family=Permanent+Marker">
      <root>
        <mxCell id="0" />
        <mxCell id="1" parent="0" />
        <mxCell id="9C5uHUtw3XRIwAUSBdwF-1" value="数据管理员（用户）" style="swimlane;childLayout=stackLayout;horizontal=1;startSize=50;horizontalStack=0;rounded=1;fontSize=14;fontStyle=0;strokeWidth=2;resizeParent=0;resizeLast=1;shadow=0;dashed=0;align=center;arcSize=4;whiteSpace=wrap;html=1;" vertex="1" parent="1">
          <mxGeometry x="-120" y="290" width="160" height="120" as="geometry" />
        </mxCell>
        <mxCell id="9C5uHUtw3XRIwAUSBdwF-2" value="+用户ID&lt;br&gt;+账号名称&lt;br&gt;+账号密码&lt;br&gt;+权限？" style="align=left;strokeColor=none;fillColor=none;spacingLeft=4;fontSize=12;verticalAlign=top;resizable=0;rotatable=0;part=1;html=1;" vertex="1" parent="9C5uHUtw3XRIwAUSBdwF-1">
          <mxGeometry y="50" width="160" height="70" as="geometry" />
        </mxCell>
        <mxCell id="9C5uHUtw3XRIwAUSBdwF-3" value="数据填报人" style="swimlane;childLayout=stackLayout;horizontal=1;startSize=50;horizontalStack=0;rounded=1;fontSize=14;fontStyle=0;strokeWidth=2;resizeParent=0;resizeLast=1;shadow=0;dashed=0;align=center;arcSize=4;whiteSpace=wrap;html=1;" vertex="1" parent="1">
          <mxGeometry x="380" y="580" width="160" height="110" as="geometry" />
        </mxCell>
        <mxCell id="9C5uHUtw3XRIwAUSBdwF-4" value="+ 填报人ID&lt;br&gt;+ 邮箱&lt;br&gt;+ 手机号" style="align=left;strokeColor=none;fillColor=none;spacingLeft=4;fontSize=12;verticalAlign=top;resizable=0;rotatable=0;part=1;html=1;" vertex="1" parent="9C5uHUtw3XRIwAUSBdwF-3">
          <mxGeometry y="50" width="160" height="60" as="geometry" />
        </mxCell>
        <mxCell id="9C5uHUtw3XRIwAUSBdwF-5" value="数据管理员组（用户组）" style="swimlane;childLayout=stackLayout;horizontal=1;startSize=50;horizontalStack=0;rounded=1;fontSize=14;fontStyle=0;strokeWidth=2;resizeParent=0;resizeLast=1;shadow=0;dashed=0;align=center;arcSize=4;whiteSpace=wrap;html=1;" vertex="1" parent="1">
          <mxGeometry x="-120" y="120" width="170" height="120" as="geometry" />
        </mxCell>
        <mxCell id="9C5uHUtw3XRIwAUSBdwF-6" value="+Attribute1&#xa;+Attribute2&#xa;+Attribute3" style="align=left;strokeColor=none;fillColor=none;spacingLeft=4;fontSize=12;verticalAlign=top;resizable=0;rotatable=0;part=1;html=1;" vertex="1" parent="9C5uHUtw3XRIwAUSBdwF-5">
          <mxGeometry y="50" width="170" height="70" as="geometry" />
        </mxCell>
        <mxCell id="9C5uHUtw3XRIwAUSBdwF-8" value="数据库" style="swimlane;childLayout=stackLayout;horizontal=1;startSize=50;horizontalStack=0;rounded=1;fontSize=14;fontStyle=0;strokeWidth=2;resizeParent=0;resizeLast=1;shadow=0;dashed=0;align=center;arcSize=4;whiteSpace=wrap;html=1;" vertex="1" parent="1">
          <mxGeometry x="360" y="315" width="130" height="90" as="geometry" />
        </mxCell>
        <mxCell id="9C5uHUtw3XRIwAUSBdwF-9" value="+数据库 ID" style="align=left;strokeColor=none;fillColor=none;spacingLeft=4;fontSize=12;verticalAlign=top;resizable=0;rotatable=0;part=1;html=1;" vertex="1" parent="9C5uHUtw3XRIwAUSBdwF-8">
          <mxGeometry y="50" width="130" height="40" as="geometry" />
        </mxCell>
        <mxCell id="9C5uHUtw3XRIwAUSBdwF-10" value="表单" style="swimlane;childLayout=stackLayout;horizontal=1;startSize=50;horizontalStack=0;rounded=1;fontSize=14;fontStyle=0;strokeWidth=2;resizeParent=0;resizeLast=1;shadow=0;dashed=0;align=center;arcSize=4;whiteSpace=wrap;html=1;" vertex="1" parent="1">
          <mxGeometry x="-120" y="580" width="160" height="110" as="geometry" />
        </mxCell>
        <mxCell id="9C5uHUtw3XRIwAUSBdwF-11" value="+ 表单ID&lt;br&gt;+ 链接&lt;br&gt;+ 问题框（多值属性）" style="align=left;strokeColor=none;fillColor=none;spacingLeft=4;fontSize=12;verticalAlign=top;resizable=0;rotatable=0;part=1;html=1;" vertex="1" parent="9C5uHUtw3XRIwAUSBdwF-10">
          <mxGeometry y="50" width="160" height="60" as="geometry" />
        </mxCell>
        <mxCell id="9C5uHUtw3XRIwAUSBdwF-16" value="拥有" style="shape=rhombus;perimeter=rhombusPerimeter;whiteSpace=wrap;html=1;align=center;" vertex="1" parent="1">
          <mxGeometry x="130" y="330" width="120" height="60" as="geometry" />
        </mxCell>
        <mxCell id="9C5uHUtw3XRIwAUSBdwF-17" value="" style="endArrow=none;html=1;rounded=0;exitX=1;exitY=0.25;exitDx=0;exitDy=0;entryX=0;entryY=0.5;entryDx=0;entryDy=0;" edge="1" parent="1" source="9C5uHUtw3XRIwAUSBdwF-2" target="9C5uHUtw3XRIwAUSBdwF-16">
          <mxGeometry relative="1" as="geometry">
            <mxPoint x="70" y="380" as="sourcePoint" />
            <mxPoint x="230" y="380" as="targetPoint" />
          </mxGeometry>
        </mxCell>
        <mxCell id="9C5uHUtw3XRIwAUSBdwF-18" value="" style="endArrow=none;html=1;rounded=0;exitX=1;exitY=0.5;exitDx=0;exitDy=0;entryX=0;entryY=0.5;entryDx=0;entryDy=0;" edge="1" parent="1" source="9C5uHUtw3XRIwAUSBdwF-16" target="9C5uHUtw3XRIwAUSBdwF-8">
          <mxGeometry relative="1" as="geometry">
            <mxPoint x="120" y="450" as="sourcePoint" />
            <mxPoint x="280" y="450" as="targetPoint" />
          </mxGeometry>
        </mxCell>
        <mxCell id="9C5uHUtw3XRIwAUSBdwF-19" value="发布" style="shape=rhombus;perimeter=rhombusPerimeter;whiteSpace=wrap;html=1;align=center;" vertex="1" parent="1">
          <mxGeometry x="-100" y="470" width="120" height="60" as="geometry" />
        </mxCell>
        <mxCell id="9C5uHUtw3XRIwAUSBdwF-20" value="" style="endArrow=none;html=1;rounded=0;exitX=0.5;exitY=1;exitDx=0;exitDy=0;entryX=0.5;entryY=0;entryDx=0;entryDy=0;" edge="1" parent="1" source="9C5uHUtw3XRIwAUSBdwF-2" target="9C5uHUtw3XRIwAUSBdwF-19">
          <mxGeometry relative="1" as="geometry">
            <mxPoint x="-60" y="450" as="sourcePoint" />
            <mxPoint x="300" y="530" as="targetPoint" />
          </mxGeometry>
        </mxCell>
        <mxCell id="9C5uHUtw3XRIwAUSBdwF-21" value="" style="endArrow=none;html=1;rounded=0;exitX=0.5;exitY=1;exitDx=0;exitDy=0;entryX=0.5;entryY=0;entryDx=0;entryDy=0;" edge="1" parent="1" source="9C5uHUtw3XRIwAUSBdwF-19" target="9C5uHUtw3XRIwAUSBdwF-10">
          <mxGeometry relative="1" as="geometry">
            <mxPoint x="100" y="560" as="sourcePoint" />
            <mxPoint x="260" y="560" as="targetPoint" />
          </mxGeometry>
        </mxCell>
        <mxCell id="9C5uHUtw3XRIwAUSBdwF-24" value="1" style="text;html=1;align=center;verticalAlign=middle;resizable=0;points=[];autosize=1;strokeColor=none;fillColor=none;" vertex="1" parent="1">
          <mxGeometry x="-40" y="428" width="30" height="30" as="geometry" />
        </mxCell>
        <mxCell id="9C5uHUtw3XRIwAUSBdwF-25" value="N" style="text;html=1;align=center;verticalAlign=middle;resizable=0;points=[];autosize=1;strokeColor=none;fillColor=none;" vertex="1" parent="1">
          <mxGeometry x="-40" y="540" width="30" height="30" as="geometry" />
        </mxCell>
        <mxCell id="9C5uHUtw3XRIwAUSBdwF-26" value="1" style="text;html=1;align=center;verticalAlign=middle;resizable=0;points=[];autosize=1;strokeColor=none;fillColor=none;" vertex="1" parent="1">
          <mxGeometry x="65" y="320" width="30" height="30" as="geometry" />
        </mxCell>
        <mxCell id="9C5uHUtw3XRIwAUSBdwF-27" value="N?" style="text;html=1;align=center;verticalAlign=middle;resizable=0;points=[];autosize=1;strokeColor=none;fillColor=none;" vertex="1" parent="1">
          <mxGeometry x="280" y="330" width="40" height="30" as="geometry" />
        </mxCell>
        <mxCell id="9C5uHUtw3XRIwAUSBdwF-28" value="填报记录" style="shape=rhombus;perimeter=rhombusPerimeter;whiteSpace=wrap;html=1;align=center;" vertex="1" parent="1">
          <mxGeometry x="140" y="600" width="120" height="60" as="geometry" />
        </mxCell>
        <mxCell id="9C5uHUtw3XRIwAUSBdwF-29" value="" style="endArrow=none;html=1;rounded=0;exitX=1;exitY=0;exitDx=0;exitDy=0;entryX=0;entryY=0.5;entryDx=0;entryDy=0;" edge="1" parent="1" source="9C5uHUtw3XRIwAUSBdwF-11" target="9C5uHUtw3XRIwAUSBdwF-28">
          <mxGeometry relative="1" as="geometry">
            <mxPoint x="80" y="490" as="sourcePoint" />
            <mxPoint x="240" y="490" as="targetPoint" />
          </mxGeometry>
        </mxCell>
        <mxCell id="9C5uHUtw3XRIwAUSBdwF-30" value="" style="endArrow=none;html=1;rounded=0;exitX=1;exitY=0.5;exitDx=0;exitDy=0;entryX=0;entryY=0;entryDx=0;entryDy=0;" edge="1" parent="1" source="9C5uHUtw3XRIwAUSBdwF-28" target="9C5uHUtw3XRIwAUSBdwF-4">
          <mxGeometry relative="1" as="geometry">
            <mxPoint x="280" y="500" as="sourcePoint" />
            <mxPoint x="440" y="500" as="targetPoint" />
          </mxGeometry>
        </mxCell>
        <mxCell id="9C5uHUtw3XRIwAUSBdwF-31" value="M" style="text;html=1;align=center;verticalAlign=middle;resizable=0;points=[];autosize=1;strokeColor=none;fillColor=none;" vertex="1" parent="1">
          <mxGeometry x="80" y="600" width="30" height="30" as="geometry" />
        </mxCell>
        <mxCell id="9C5uHUtw3XRIwAUSBdwF-32" value="N" style="text;html=1;align=center;verticalAlign=middle;resizable=0;points=[];autosize=1;strokeColor=none;fillColor=none;" vertex="1" parent="1">
          <mxGeometry x="310" y="600" width="30" height="30" as="geometry" />
        </mxCell>
      </root>
    </mxGraphModel>
  </diagram>
</mxfile>
